<?xml version="1.0" encoding="UTF-8"?>
<svg width="35px" height="35px" viewBox="0 0 35 35" version="1.1" xmlns="http://www.w3.org/2000/svg" xmlns:xlink="http://www.w3.org/1999/xlink">
    <title>852DF508-CCFC-4F22-AF02-92B354B0B35F</title>
    <g id="Interactive-Video" stroke="none" stroke-width="1" fill="none" fill-rule="evenodd">
        <g id="rewind" transform="translate(-1094.000000, -523.000000)">
            <g id="Group-3" transform="translate(1094.000000, 523.000000)">
                <rect id="Rectangle-Copy-2" stroke="#F3F3F3" stroke-width="2" x="1" y="1" width="33" height="33" rx="16.5"></rect>
                <path d="M25.2020459,22.5146259 C24.3296704,23.7478854 23.0086325,24.5900515 21.5224044,24.8604099 C21.1209023,24.9352508 20.7133003,24.9725192 20.3048833,24.9717318 C19.8101191,24.976412 19.3153549,24.9790864 18.8205908,24.9797561 C18.6900841,24.9800214 18.5648314,24.9283644 18.472455,24.8361762 C18.3800786,24.7439879 18.3281664,24.6188408 18.3281667,24.4883339 L18.3281667,21.3191687 C18.3281667,21.0477642 18.5481834,20.8277475 18.8195879,20.8277475 L20.3439964,20.8277475 C20.7995773,20.8405262 21.2432466,20.6811777 21.58659,20.3814568 C22.259515,19.7949615 22.38866,18.7983922 21.8874601,18.0597424 C21.5634423,17.557192 20.9998327,17.2611162 20.4021647,17.279486 C18.6701557,17.279486 16.9391497,17.279486 15.2071407,17.279486 C15.1750479,17.279486 15.1449609,17.2865063 15.093813,17.2925237 L15.093813,17.4810689 C15.093813,18.1179107 15.093813,18.7567582 15.093813,19.3935999 C15.113568,19.64685 14.9641299,19.8828478 14.7267514,19.9732764 C14.4936417,20.0708193 14.224423,20.0123284 14.0528024,19.8268529 C14.0337473,19.8088007 14.0146922,19.7897456 13.995637,19.7706905 L10.1846156,15.9456285 C10.0525369,15.8339627 9.97635145,15.6697872 9.97635145,15.4968305 C9.97635145,15.3238739 10.0525369,15.1596983 10.1846156,15.0480326 L14.0136893,11.2139445 C14.1820751,10.9978981 14.4741747,10.9211894 14.7269853,11.0266248 C14.9797958,11.1320601 15.1308357,11.3935814 15.0958188,11.6652496 C15.0898014,12.0904794 15.0958188,12.5147063 15.0958188,12.939936 L15.0958188,13.1344987 L20.1885469,13.1344987 C20.8206153,13.1205637 21.4512622,13.200324 22.059959,13.3711832 C23.0895125,13.6707577 24.0186801,14.2436462 24.7487349,15.0289775 C26.6706195,17.0924112 26.8631003,20.2275787 25.2080633,22.5106143 L25.2020459,22.5146259 Z" id="Path_61-Copy" fill="#F3F3F3" fill-rule="nonzero" transform="translate(18.153610, 17.979756) scale(-1, 1) translate(-18.153610, -17.979756) "></path>
            </g>
        </g>
    </g>
</svg>