<?xml version="1.0" encoding="UTF-8"?>
<svg width="35px" height="35px" viewBox="0 0 35 35" version="1.1" xmlns="http://www.w3.org/2000/svg" xmlns:xlink="http://www.w3.org/1999/xlink">
    <title>A6C4568A-20EF-4A39-89BC-96442E85E612</title>
    <g id="Interactive-Video" stroke="none" stroke-width="1" fill="none" fill-rule="evenodd">
        <g id="rewind" transform="translate(-789.000000, -523.000000)">
            <g id="rewind-backward" transform="translate(789.000000, 523.000000)">
                <rect id="Rectangle-Copy-2" stroke="#F3F3F3" stroke-width="2" x="1" y="1" width="33" height="33" rx="16.5"></rect>
                <path d="M24.2020459,22.5146259 C23.3296704,23.7478854 22.0086325,24.5900515 20.5224044,24.8604099 C20.1209023,24.9352508 19.7133003,24.9725192 19.3048833,24.9717318 C18.8101191,24.976412 18.3153549,24.9790864 17.8205908,24.9797561 C17.6900841,24.9800214 17.5648314,24.9283644 17.472455,24.8361762 C17.3800786,24.7439879 17.3281664,24.6188408 17.3281667,24.4883339 L17.3281667,21.3191687 C17.3281667,21.0477642 17.5481834,20.8277475 17.8195879,20.8277475 L19.3439964,20.8277475 C19.7995773,20.8405262 20.2432466,20.6811777 20.58659,20.3814568 C21.259515,19.7949615 21.38866,18.7983922 20.8874601,18.0597424 C20.5634423,17.557192 19.9998327,17.2611162 19.4021647,17.279486 C17.6701557,17.279486 15.9391497,17.279486 14.2071407,17.279486 C14.1750479,17.279486 14.1449609,17.2865063 14.093813,17.2925237 L14.093813,17.4810689 C14.093813,18.1179107 14.093813,18.7567582 14.093813,19.3935999 C14.113568,19.64685 13.9641299,19.8828478 13.7267514,19.9732764 C13.4936417,20.0708193 13.224423,20.0123284 13.0528024,19.8268529 C13.0337473,19.8088007 13.0146922,19.7897456 12.995637,19.7706905 L9.18461561,15.9456285 C9.05253693,15.8339627 8.97635145,15.6697872 8.97635145,15.4968305 C8.97635145,15.3238739 9.05253693,15.1596983 9.18461561,15.0480326 L13.0136893,11.2139445 C13.1820751,10.9978981 13.4741747,10.9211894 13.7269853,11.0266248 C13.9797958,11.1320601 14.1308357,11.3935814 14.0958188,11.6652496 C14.0898014,12.0904794 14.0958188,12.5147063 14.0958188,12.939936 L14.0958188,13.1344987 L19.1885469,13.1344987 C19.8206153,13.1205637 20.4512622,13.200324 21.059959,13.3711832 C22.0895125,13.6707577 23.0186801,14.2436462 23.7487349,15.0289775 C25.6706195,17.0924112 25.8631003,20.2275787 24.2080633,22.5106143 L24.2020459,22.5146259 Z" id="Path_61-Copy" fill="#F3F3F3" fill-rule="nonzero"></path>
            </g>
        </g>
    </g>
</svg>